<svg xmlns="http://www.w3.org/2000/svg" xmlns:xlink="http://www.w3.org/1999/xlink" width="500" zoomAndPan="magnify" viewBox="0 0 375 374.999991" height="500" preserveAspectRatio="xMidYMid meet" version="1.0"><defs><g/><clipPath id="id1"><path d="M 8.445312 8.429688 L 366.445312 8.429688 L 366.445312 366.445312 L 8.445312 366.445312 Z M 8.445312 8.429688 " clip-rule="nonzero"/></clipPath></defs><g clip-path="url(#id1)"><path fill="#8c52ff" d="M 187.4375 366.445312 C 139.644531 366.445312 94.644531 347.84375 60.875 314 C 27.03125 280.230469 8.429688 235.230469 8.429688 187.4375 C 8.429688 139.644531 27.03125 94.644531 60.875 60.875 C 94.644531 27.03125 139.644531 8.429688 187.4375 8.429688 C 235.230469 8.429688 280.230469 27.03125 314 60.875 C 347.84375 94.714844 366.445312 139.644531 366.445312 187.4375 C 366.445312 235.230469 347.84375 280.230469 314 314 C 280.230469 347.84375 235.230469 366.445312 187.4375 366.445312 Z M 187.4375 19.164062 C 142.507812 19.164062 100.222656 36.691406 68.457031 68.457031 C 36.691406 100.222656 19.164062 142.507812 19.164062 187.4375 C 19.164062 232.367188 36.691406 274.652344 68.457031 306.417969 C 100.222656 338.183594 142.507812 355.710938 187.4375 355.710938 C 232.367188 355.710938 274.652344 338.183594 306.417969 306.417969 C 338.183594 274.652344 355.710938 232.367188 355.710938 187.4375 C 355.710938 142.507812 338.183594 100.222656 306.417969 68.457031 C 274.652344 36.691406 232.367188 19.164062 187.4375 19.164062 Z M 187.4375 19.164062 " fill-opacity="1" fill-rule="nonzero"/></g><g fill="#ebdbb3" fill-opacity="0.4"><g transform="translate(102.994517, 196.719578)"><g><path d="M 80.582031 -75.125 C 80.582031 -69.183594 76.085938 -64.851562 70.628906 -64.851562 L 60.515625 -64.851562 L 60.515625 -40.292969 L 80.101562 0 L 119.910156 0 L 95.351562 -46.230469 C 109.636719 -51.527344 116.699219 -63.726562 116.699219 -76.570312 C 116.699219 -94.546875 104.019531 -110.441406 79.457031 -110.441406 L 60.515625 -110.441406 L 60.515625 -85.238281 L 70.628906 -85.238281 C 76.085938 -85.238281 80.582031 -81.0625 80.582031 -75.125 Z M 41.894531 0 L 41.894531 -110.441406 L 11.878906 -110.441406 L 11.878906 0 Z M 41.894531 0 "/></g></g></g><g fill="#5271ff" fill-opacity="1"><g transform="translate(95.900192, 189.625254)"><g><path d="M 80.582031 -75.125 C 80.582031 -69.183594 76.085938 -64.851562 70.628906 -64.851562 L 60.515625 -64.851562 L 60.515625 -40.292969 L 80.101562 0 L 119.910156 0 L 95.351562 -46.230469 C 109.636719 -51.527344 116.699219 -63.726562 116.699219 -76.570312 C 116.699219 -94.546875 104.019531 -110.441406 79.457031 -110.441406 L 60.515625 -110.441406 L 60.515625 -85.238281 L 70.628906 -85.238281 C 76.085938 -85.238281 80.582031 -81.0625 80.582031 -75.125 Z M 41.894531 0 L 41.894531 -110.441406 L 11.878906 -110.441406 L 11.878906 0 Z M 41.894531 0 "/></g></g></g><g fill="#ebdbb3" fill-opacity="0.4"><g transform="translate(155.378665, 321.539144)"><g><path d="M 137.582031 -124.710938 L 97.523438 -124.710938 L 97.523438 -79.214844 L 74.5 -79.214844 L 74.5 -47.3125 L 97.523438 -47.3125 L 97.523438 0 L 137.582031 0 Z M 53.472656 0 L 53.472656 -124.710938 L 13.414062 -124.710938 L 13.414062 0 Z M 53.472656 0 "/></g></g></g><g fill="#5271ff" fill-opacity="1"><g transform="translate(147.367495, 313.52798)"><g><path d="M 137.582031 -124.710938 L 97.523438 -124.710938 L 97.523438 -79.214844 L 74.5 -79.214844 L 74.5 -47.3125 L 97.523438 -47.3125 L 97.523438 0 L 137.582031 0 Z M 53.472656 0 L 53.472656 -124.710938 L 13.414062 -124.710938 L 13.414062 0 Z M 53.472656 0 "/></g></g></g></svg>