<svg xmlns="http://www.w3.org/2000/svg" xmlns:xlink="http://www.w3.org/1999/xlink" width="500" zoomAndPan="magnify" viewBox="0 0 375 374.999991" height="500" preserveAspectRatio="xMidYMid meet" version="1.0"><defs><g/><clipPath id="id1"><path d="M 23.210938 9.707031 L 354.40625 9.707031 L 354.40625 341.023438 L 23.210938 341.023438 Z M 23.210938 9.707031 " clip-rule="nonzero"/></clipPath></defs><g clip-path="url(#id1)"><path fill="#8c52ff" d="M 188.746094 341.023438 C 144.519531 341.023438 102.871094 323.808594 71.621094 292.488281 C 40.304688 261.238281 23.089844 219.59375 23.089844 175.363281 C 23.089844 131.136719 40.304688 89.488281 71.621094 58.238281 C 102.871094 26.921875 144.519531 9.707031 188.746094 9.707031 C 232.976562 9.707031 274.621094 26.921875 305.871094 58.238281 C 337.191406 89.554688 354.40625 131.136719 354.40625 175.363281 C 354.40625 219.59375 337.191406 261.238281 305.871094 292.488281 C 274.621094 323.808594 232.976562 341.023438 188.746094 341.023438 Z M 188.746094 19.636719 C 147.167969 19.636719 108.035156 35.859375 78.640625 65.257812 C 49.242188 94.65625 33.019531 133.785156 33.019531 175.363281 C 33.019531 216.945312 49.242188 256.074219 78.640625 285.472656 C 108.035156 314.871094 147.167969 331.089844 188.746094 331.089844 C 230.328125 331.089844 269.457031 314.871094 298.855469 285.472656 C 328.25 256.074219 344.472656 216.945312 344.472656 175.363281 C 344.472656 133.785156 328.25 94.65625 298.855469 65.257812 C 269.457031 35.859375 230.328125 19.636719 188.746094 19.636719 Z M 188.746094 19.636719 " fill-opacity="1" fill-rule="nonzero"/></g><g fill="#ebdbb3" fill-opacity="0.4"><g transform="translate(110.761378, 183.231191)"><g><path d="M 74.566406 -69.515625 C 74.566406 -64.019531 70.40625 -60.011719 65.355469 -60.011719 L 56 -60.011719 L 56 -37.285156 L 74.121094 0 L 110.960938 0 L 88.234375 -42.78125 C 101.453125 -47.679688 107.988281 -58.96875 107.988281 -70.851562 C 107.988281 -87.488281 96.253906 -102.195312 73.527344 -102.195312 L 56 -102.195312 L 56 -78.875 L 65.355469 -78.875 C 70.40625 -78.875 74.566406 -75.011719 74.566406 -69.515625 Z M 38.769531 0 L 38.769531 -102.195312 L 10.992188 -102.195312 L 10.992188 0 Z M 38.769531 0 "/></g></g></g><g fill="#5271ff" fill-opacity="1"><g transform="translate(104.196116, 176.665931)"><g><path d="M 74.566406 -69.515625 C 74.566406 -64.019531 70.40625 -60.011719 65.355469 -60.011719 L 56 -60.011719 L 56 -37.285156 L 74.121094 0 L 110.960938 0 L 88.234375 -42.78125 C 101.453125 -47.679688 107.988281 -58.96875 107.988281 -70.851562 C 107.988281 -87.488281 96.253906 -102.195312 73.527344 -102.195312 L 56 -102.195312 L 56 -78.875 L 65.355469 -78.875 C 70.40625 -78.875 74.566406 -75.011719 74.566406 -69.515625 Z M 38.769531 0 L 38.769531 -102.195312 L 10.992188 -102.195312 L 10.992188 0 Z M 38.769531 0 "/></g></g></g><g fill="#ebdbb3" fill-opacity="0.4"><g transform="translate(159.446359, 299.368925)"><g><path d="M 127.316406 -115.40625 L 90.246094 -115.40625 L 90.246094 -73.304688 L 68.941406 -73.304688 L 68.941406 -43.78125 L 90.246094 -43.78125 L 90.246094 0 L 127.316406 0 Z M 49.484375 0 L 49.484375 -115.40625 L 12.414062 -115.40625 L 12.414062 0 Z M 49.484375 0 "/></g></g></g><g fill="#5271ff" fill-opacity="1"><g transform="translate(152.032611, 291.955169)"><g><path d="M 127.316406 -115.40625 L 90.246094 -115.40625 L 90.246094 -73.304688 L 68.941406 -73.304688 L 68.941406 -43.78125 L 90.246094 -43.78125 L 90.246094 0 L 127.316406 0 Z M 49.484375 0 L 49.484375 -115.40625 L 12.414062 -115.40625 L 12.414062 0 Z M 49.484375 0 "/></g></g></g><g fill="#ff00ff" fill-opacity="1"><g transform="translate(71.497409, 369.0745)"><g><path d="M 4.875 -7.65625 L 4.875 0 L 2.515625 0 L 2.515625 -18.53125 L 7.03125 -18.53125 C 9.28125 -18.53125 10.941406 -18.09375 12.015625 -17.21875 C 13.085938 -16.351562 13.625 -15.039062 13.625 -13.28125 C 13.625 -12.539062 13.519531 -11.894531 13.3125 -11.34375 C 13.113281 -10.800781 12.84375 -10.332031 12.5 -9.9375 C 12.15625 -9.539062 11.757812 -9.210938 11.3125 -8.953125 C 10.875 -8.691406 10.425781 -8.476562 9.96875 -8.3125 L 15.015625 0 L 12.234375 0 L 7.78125 -7.65625 Z M 4.875 -9.65625 L 6.96875 -9.65625 C 7.726562 -9.65625 8.375 -9.726562 8.90625 -9.875 C 9.4375 -10.03125 9.875 -10.253906 10.21875 -10.546875 C 10.5625 -10.835938 10.8125 -11.195312 10.96875 -11.625 C 11.125 -12.0625 11.203125 -12.570312 11.203125 -13.15625 C 11.203125 -13.769531 11.113281 -14.285156 10.9375 -14.703125 C 10.757812 -15.128906 10.492188 -15.476562 10.140625 -15.75 C 9.796875 -16.019531 9.351562 -16.210938 8.8125 -16.328125 C 8.28125 -16.453125 7.644531 -16.515625 6.90625 -16.515625 L 4.875 -16.515625 Z M 4.875 -9.65625 "/></g></g></g><g fill="#ff00ff" fill-opacity="1"><g transform="translate(96.425315, 369.0745)"><g><path d="M 10.90625 0 L 10.90625 -8.96875 C 10.90625 -10.0625 10.679688 -10.882812 10.234375 -11.4375 C 9.796875 -11.988281 9.101562 -12.265625 8.15625 -12.265625 C 7.46875 -12.265625 6.890625 -12.15625 6.421875 -11.9375 C 5.960938 -11.71875 5.585938 -11.390625 5.296875 -10.953125 C 5.015625 -10.523438 4.8125 -10 4.6875 -9.375 C 4.570312 -8.75 4.515625 -8.03125 4.515625 -7.21875 L 4.515625 0 L 2.203125 0 L 2.203125 -19.734375 L 4.515625 -19.734375 L 4.515625 -13.875 L 4.40625 -12.046875 L 4.546875 -12.046875 C 4.753906 -12.410156 5.003906 -12.722656 5.296875 -12.984375 C 5.585938 -13.253906 5.90625 -13.476562 6.25 -13.65625 C 6.59375 -13.832031 6.957031 -13.960938 7.34375 -14.046875 C 7.738281 -14.128906 8.140625 -14.171875 8.546875 -14.171875 C 10.085938 -14.171875 11.25 -13.765625 12.03125 -12.953125 C 12.820312 -12.148438 13.21875 -10.863281 13.21875 -9.09375 L 13.21875 0 Z M 10.90625 0 "/></g></g></g><g fill="#ff00ff" fill-opacity="1"><g transform="translate(121.327861, 369.0745)"><g><path d="M 1.046875 -5.890625 L 1.046875 -8.03125 L 7.328125 -8.03125 L 7.328125 -5.890625 Z M 1.046875 -5.890625 "/></g></g></g><g fill="#ff00ff" fill-opacity="1"><g transform="translate(139.294531, 369.0745)"><g><path d="M 10.53125 -3.8125 C 10.53125 -3.132812 10.40625 -2.539062 10.15625 -2.03125 C 9.914062 -1.53125 9.566406 -1.109375 9.109375 -0.765625 C 8.648438 -0.421875 8.09375 -0.164062 7.4375 0 C 6.789062 0.164062 6.0625 0.25 5.25 0.25 C 4.332031 0.25 3.539062 0.175781 2.875 0.03125 C 2.21875 -0.113281 1.640625 -0.332031 1.140625 -0.625 L 1.140625 -2.71875 C 1.398438 -2.582031 1.691406 -2.445312 2.015625 -2.3125 C 2.335938 -2.1875 2.675781 -2.070312 3.03125 -1.96875 C 3.382812 -1.875 3.75 -1.796875 4.125 -1.734375 C 4.5 -1.671875 4.875 -1.640625 5.25 -1.640625 C 5.800781 -1.640625 6.269531 -1.6875 6.65625 -1.78125 C 7.039062 -1.875 7.351562 -2.003906 7.59375 -2.171875 C 7.832031 -2.347656 8.003906 -2.5625 8.109375 -2.8125 C 8.222656 -3.0625 8.28125 -3.335938 8.28125 -3.640625 C 8.28125 -3.898438 8.238281 -4.132812 8.15625 -4.34375 C 8.070312 -4.5625 7.914062 -4.769531 7.6875 -4.96875 C 7.46875 -5.175781 7.160156 -5.382812 6.765625 -5.59375 C 6.378906 -5.8125 5.882812 -6.050781 5.28125 -6.3125 C 4.664062 -6.570312 4.113281 -6.828125 3.625 -7.078125 C 3.144531 -7.335938 2.734375 -7.625 2.390625 -7.9375 C 2.054688 -8.25 1.796875 -8.609375 1.609375 -9.015625 C 1.429688 -9.429688 1.34375 -9.921875 1.34375 -10.484375 C 1.34375 -11.078125 1.457031 -11.601562 1.6875 -12.0625 C 1.925781 -12.519531 2.253906 -12.90625 2.671875 -13.21875 C 3.097656 -13.53125 3.601562 -13.765625 4.1875 -13.921875 C 4.78125 -14.085938 5.441406 -14.171875 6.171875 -14.171875 C 6.992188 -14.171875 7.742188 -14.082031 8.421875 -13.90625 C 9.109375 -13.726562 9.753906 -13.5 10.359375 -13.21875 L 9.5625 -11.34375 C 9.007812 -11.59375 8.441406 -11.804688 7.859375 -11.984375 C 7.285156 -12.171875 6.695312 -12.265625 6.09375 -12.265625 C 5.238281 -12.265625 4.601562 -12.117188 4.1875 -11.828125 C 3.769531 -11.546875 3.5625 -11.144531 3.5625 -10.625 C 3.5625 -10.332031 3.609375 -10.070312 3.703125 -9.84375 C 3.804688 -9.625 3.972656 -9.414062 4.203125 -9.21875 C 4.441406 -9.03125 4.757812 -8.835938 5.15625 -8.640625 C 5.550781 -8.441406 6.046875 -8.21875 6.640625 -7.96875 C 7.253906 -7.71875 7.796875 -7.460938 8.265625 -7.203125 C 8.742188 -6.953125 9.148438 -6.671875 9.484375 -6.359375 C 9.828125 -6.046875 10.085938 -5.6875 10.265625 -5.28125 C 10.441406 -4.875 10.53125 -4.382812 10.53125 -3.8125 Z M 10.53125 -3.8125 "/></g></g></g><g fill="#ff00ff" fill-opacity="1"><g transform="translate(160.621355, 369.0745)"><g><path d="M 1.046875 -5.890625 L 1.046875 -8.03125 L 7.328125 -8.03125 L 7.328125 -5.890625 Z M 1.046875 -5.890625 "/></g></g></g><g fill="#ff00ff" fill-opacity="1"><g transform="translate(178.588019, 369.0745)"><g><path d="M 13.625 -13.109375 C 13.625 -12.335938 13.507812 -11.597656 13.28125 -10.890625 C 13.050781 -10.179688 12.671875 -9.550781 12.140625 -9 C 11.609375 -8.457031 10.90625 -8.023438 10.03125 -7.703125 C 9.15625 -7.378906 8.070312 -7.21875 6.78125 -7.21875 L 4.875 -7.21875 L 4.875 0 L 2.515625 0 L 2.515625 -18.53125 L 7.109375 -18.53125 C 8.242188 -18.53125 9.21875 -18.410156 10.03125 -18.171875 C 10.851562 -17.929688 11.53125 -17.582031 12.0625 -17.125 C 12.601562 -16.664062 13 -16.097656 13.25 -15.421875 C 13.5 -14.742188 13.625 -13.972656 13.625 -13.109375 Z M 4.875 -9.21875 L 6.515625 -9.21875 C 7.304688 -9.21875 7.992188 -9.285156 8.578125 -9.421875 C 9.160156 -9.554688 9.644531 -9.773438 10.03125 -10.078125 C 10.414062 -10.378906 10.707031 -10.765625 10.90625 -11.234375 C 11.101562 -11.710938 11.203125 -12.296875 11.203125 -12.984375 C 11.203125 -14.179688 10.851562 -15.066406 10.15625 -15.640625 C 9.457031 -16.222656 8.375 -16.515625 6.90625 -16.515625 L 4.875 -16.515625 Z M 4.875 -9.21875 "/></g></g></g><g fill="#ff00ff" fill-opacity="1"><g transform="translate(203.160885, 369.0745)"><g><path d="M 0.125 -13.921875 L 2.515625 -13.921875 L 5.25 -6.15625 C 5.363281 -5.8125 5.484375 -5.453125 5.609375 -5.078125 C 5.734375 -4.710938 5.847656 -4.34375 5.953125 -3.96875 C 6.054688 -3.59375 6.144531 -3.234375 6.21875 -2.890625 C 6.300781 -2.546875 6.359375 -2.222656 6.390625 -1.921875 L 6.46875 -1.921875 C 6.507812 -2.140625 6.578125 -2.425781 6.671875 -2.78125 C 6.765625 -3.144531 6.867188 -3.53125 6.984375 -3.9375 C 7.097656 -4.351562 7.210938 -4.757812 7.328125 -5.15625 C 7.453125 -5.550781 7.5625 -5.890625 7.65625 -6.171875 L 10.1875 -13.921875 L 12.5625 -13.921875 L 7.0625 1.8125 C 6.820312 2.5 6.566406 3.113281 6.296875 3.65625 C 6.023438 4.195312 5.707031 4.660156 5.34375 5.046875 C 4.976562 5.429688 4.550781 5.722656 4.0625 5.921875 C 3.570312 6.128906 2.988281 6.234375 2.3125 6.234375 C 1.863281 6.234375 1.476562 6.207031 1.15625 6.15625 C 0.84375 6.113281 0.570312 6.066406 0.34375 6.015625 L 0.34375 4.1875 C 0.519531 4.226562 0.742188 4.265625 1.015625 4.296875 C 1.285156 4.328125 1.566406 4.34375 1.859375 4.34375 C 2.265625 4.34375 2.613281 4.289062 2.90625 4.1875 C 3.207031 4.09375 3.46875 3.953125 3.6875 3.765625 C 3.90625 3.578125 4.09375 3.347656 4.25 3.078125 C 4.40625 2.804688 4.546875 2.5 4.671875 2.15625 L 5.40625 0.125 Z M 0.125 -13.921875 "/></g></g></g><g fill="#ff00ff" fill-opacity="1"><g transform="translate(225.464073, 369.0745)"><g><path d="M 7.921875 0 L 5.546875 0 L 5.546875 -16.453125 L 0.25 -16.453125 L 0.25 -18.53125 L 13.21875 -18.53125 L 13.21875 -16.453125 L 7.921875 -16.453125 Z M 7.921875 0 "/></g></g></g><g fill="#ff00ff" fill-opacity="1"><g transform="translate(248.553413, 369.0745)"><g><path d="M 13.5625 -6.984375 C 13.5625 -5.828125 13.414062 -4.796875 13.125 -3.890625 C 12.84375 -2.992188 12.4375 -2.238281 11.90625 -1.625 C 11.382812 -1.007812 10.742188 -0.539062 9.984375 -0.21875 C 9.234375 0.09375 8.390625 0.25 7.453125 0.25 C 6.585938 0.25 5.785156 0.09375 5.046875 -0.21875 C 4.304688 -0.539062 3.664062 -1.007812 3.125 -1.625 C 2.59375 -2.238281 2.175781 -2.992188 1.875 -3.890625 C 1.582031 -4.796875 1.4375 -5.828125 1.4375 -6.984375 C 1.4375 -8.140625 1.578125 -9.160156 1.859375 -10.046875 C 2.140625 -10.941406 2.539062 -11.691406 3.0625 -12.296875 C 3.59375 -12.910156 4.234375 -13.375 4.984375 -13.6875 C 5.742188 -14.007812 6.59375 -14.171875 7.53125 -14.171875 C 8.40625 -14.171875 9.207031 -14.007812 9.9375 -13.6875 C 10.675781 -13.375 11.3125 -12.910156 11.84375 -12.296875 C 12.382812 -11.691406 12.804688 -10.941406 13.109375 -10.046875 C 13.410156 -9.160156 13.5625 -8.140625 13.5625 -6.984375 Z M 3.8125 -6.984375 C 3.8125 -5.222656 4.097656 -3.894531 4.671875 -3 C 5.253906 -2.101562 6.195312 -1.65625 7.5 -1.65625 C 8.800781 -1.65625 9.738281 -2.101562 10.3125 -3 C 10.882812 -3.894531 11.171875 -5.222656 11.171875 -6.984375 C 11.171875 -8.753906 10.878906 -10.078125 10.296875 -10.953125 C 9.722656 -11.828125 8.785156 -12.265625 7.484375 -12.265625 C 6.179688 -12.265625 5.242188 -11.828125 4.671875 -10.953125 C 4.097656 -10.078125 3.8125 -8.753906 3.8125 -6.984375 Z M 3.8125 -6.984375 "/></g></g></g><g fill="#ff00ff" fill-opacity="1"><g transform="translate(273.151647, 369.0745)"><g><path d="M 13.5625 -6.984375 C 13.5625 -5.828125 13.414062 -4.796875 13.125 -3.890625 C 12.84375 -2.992188 12.4375 -2.238281 11.90625 -1.625 C 11.382812 -1.007812 10.742188 -0.539062 9.984375 -0.21875 C 9.234375 0.09375 8.390625 0.25 7.453125 0.25 C 6.585938 0.25 5.785156 0.09375 5.046875 -0.21875 C 4.304688 -0.539062 3.664062 -1.007812 3.125 -1.625 C 2.59375 -2.238281 2.175781 -2.992188 1.875 -3.890625 C 1.582031 -4.796875 1.4375 -5.828125 1.4375 -6.984375 C 1.4375 -8.140625 1.578125 -9.160156 1.859375 -10.046875 C 2.140625 -10.941406 2.539062 -11.691406 3.0625 -12.296875 C 3.59375 -12.910156 4.234375 -13.375 4.984375 -13.6875 C 5.742188 -14.007812 6.59375 -14.171875 7.53125 -14.171875 C 8.40625 -14.171875 9.207031 -14.007812 9.9375 -13.6875 C 10.675781 -13.375 11.3125 -12.910156 11.84375 -12.296875 C 12.382812 -11.691406 12.804688 -10.941406 13.109375 -10.046875 C 13.410156 -9.160156 13.5625 -8.140625 13.5625 -6.984375 Z M 3.8125 -6.984375 C 3.8125 -5.222656 4.097656 -3.894531 4.671875 -3 C 5.253906 -2.101562 6.195312 -1.65625 7.5 -1.65625 C 8.800781 -1.65625 9.738281 -2.101562 10.3125 -3 C 10.882812 -3.894531 11.171875 -5.222656 11.171875 -6.984375 C 11.171875 -8.753906 10.878906 -10.078125 10.296875 -10.953125 C 9.722656 -11.828125 8.785156 -12.265625 7.484375 -12.265625 C 6.179688 -12.265625 5.242188 -11.828125 4.671875 -10.953125 C 4.097656 -10.078125 3.8125 -8.753906 3.8125 -6.984375 Z M 3.8125 -6.984375 "/></g></g></g><g fill="#ff00ff" fill-opacity="1"><g transform="translate(297.749882, 369.0745)"><g><path d="M 4.515625 0 L 2.203125 0 L 2.203125 -19.734375 L 4.515625 -19.734375 Z M 4.515625 0 "/></g></g></g><g fill="#00ffff" fill-opacity="1"><g transform="translate(70.523358, 369.0745)"><g><path d="M 4.875 -7.65625 L 4.875 0 L 2.515625 0 L 2.515625 -18.53125 L 7.03125 -18.53125 C 9.28125 -18.53125 10.941406 -18.09375 12.015625 -17.21875 C 13.085938 -16.351562 13.625 -15.039062 13.625 -13.28125 C 13.625 -12.539062 13.519531 -11.894531 13.3125 -11.34375 C 13.113281 -10.800781 12.84375 -10.332031 12.5 -9.9375 C 12.15625 -9.539062 11.757812 -9.210938 11.3125 -8.953125 C 10.875 -8.691406 10.425781 -8.476562 9.96875 -8.3125 L 15.015625 0 L 12.234375 0 L 7.78125 -7.65625 Z M 4.875 -9.65625 L 6.96875 -9.65625 C 7.726562 -9.65625 8.375 -9.726562 8.90625 -9.875 C 9.4375 -10.03125 9.875 -10.253906 10.21875 -10.546875 C 10.5625 -10.835938 10.8125 -11.195312 10.96875 -11.625 C 11.125 -12.0625 11.203125 -12.570312 11.203125 -13.15625 C 11.203125 -13.769531 11.113281 -14.285156 10.9375 -14.703125 C 10.757812 -15.128906 10.492188 -15.476562 10.140625 -15.75 C 9.796875 -16.019531 9.351562 -16.210938 8.8125 -16.328125 C 8.28125 -16.453125 7.644531 -16.515625 6.90625 -16.515625 L 4.875 -16.515625 Z M 4.875 -9.65625 "/></g></g></g><g fill="#00ffff" fill-opacity="1"><g transform="translate(95.451264, 369.0745)"><g><path d="M 10.90625 0 L 10.90625 -8.96875 C 10.90625 -10.0625 10.679688 -10.882812 10.234375 -11.4375 C 9.796875 -11.988281 9.101562 -12.265625 8.15625 -12.265625 C 7.46875 -12.265625 6.890625 -12.15625 6.421875 -11.9375 C 5.960938 -11.71875 5.585938 -11.390625 5.296875 -10.953125 C 5.015625 -10.523438 4.8125 -10 4.6875 -9.375 C 4.570312 -8.75 4.515625 -8.03125 4.515625 -7.21875 L 4.515625 0 L 2.203125 0 L 2.203125 -19.734375 L 4.515625 -19.734375 L 4.515625 -13.875 L 4.40625 -12.046875 L 4.546875 -12.046875 C 4.753906 -12.410156 5.003906 -12.722656 5.296875 -12.984375 C 5.585938 -13.253906 5.90625 -13.476562 6.25 -13.65625 C 6.59375 -13.832031 6.957031 -13.960938 7.34375 -14.046875 C 7.738281 -14.128906 8.140625 -14.171875 8.546875 -14.171875 C 10.085938 -14.171875 11.25 -13.765625 12.03125 -12.953125 C 12.820312 -12.148438 13.21875 -10.863281 13.21875 -9.09375 L 13.21875 0 Z M 10.90625 0 "/></g></g></g><g fill="#00ffff" fill-opacity="1"><g transform="translate(120.353811, 369.0745)"><g><path d="M 1.046875 -5.890625 L 1.046875 -8.03125 L 7.328125 -8.03125 L 7.328125 -5.890625 Z M 1.046875 -5.890625 "/></g></g></g><g fill="#00ffff" fill-opacity="1"><g transform="translate(138.32048, 369.0745)"><g><path d="M 10.53125 -3.8125 C 10.53125 -3.132812 10.40625 -2.539062 10.15625 -2.03125 C 9.914062 -1.53125 9.566406 -1.109375 9.109375 -0.765625 C 8.648438 -0.421875 8.09375 -0.164062 7.4375 0 C 6.789062 0.164062 6.0625 0.25 5.25 0.25 C 4.332031 0.25 3.539062 0.175781 2.875 0.03125 C 2.21875 -0.113281 1.640625 -0.332031 1.140625 -0.625 L 1.140625 -2.71875 C 1.398438 -2.582031 1.691406 -2.445312 2.015625 -2.3125 C 2.335938 -2.1875 2.675781 -2.070312 3.03125 -1.96875 C 3.382812 -1.875 3.75 -1.796875 4.125 -1.734375 C 4.5 -1.671875 4.875 -1.640625 5.25 -1.640625 C 5.800781 -1.640625 6.269531 -1.6875 6.65625 -1.78125 C 7.039062 -1.875 7.351562 -2.003906 7.59375 -2.171875 C 7.832031 -2.347656 8.003906 -2.5625 8.109375 -2.8125 C 8.222656 -3.0625 8.28125 -3.335938 8.28125 -3.640625 C 8.28125 -3.898438 8.238281 -4.132812 8.15625 -4.34375 C 8.070312 -4.5625 7.914062 -4.769531 7.6875 -4.96875 C 7.46875 -5.175781 7.160156 -5.382812 6.765625 -5.59375 C 6.378906 -5.8125 5.882812 -6.050781 5.28125 -6.3125 C 4.664062 -6.570312 4.113281 -6.828125 3.625 -7.078125 C 3.144531 -7.335938 2.734375 -7.625 2.390625 -7.9375 C 2.054688 -8.25 1.796875 -8.609375 1.609375 -9.015625 C 1.429688 -9.429688 1.34375 -9.921875 1.34375 -10.484375 C 1.34375 -11.078125 1.457031 -11.601562 1.6875 -12.0625 C 1.925781 -12.519531 2.253906 -12.90625 2.671875 -13.21875 C 3.097656 -13.53125 3.601562 -13.765625 4.1875 -13.921875 C 4.78125 -14.085938 5.441406 -14.171875 6.171875 -14.171875 C 6.992188 -14.171875 7.742188 -14.082031 8.421875 -13.90625 C 9.109375 -13.726562 9.753906 -13.5 10.359375 -13.21875 L 9.5625 -11.34375 C 9.007812 -11.59375 8.441406 -11.804688 7.859375 -11.984375 C 7.285156 -12.171875 6.695312 -12.265625 6.09375 -12.265625 C 5.238281 -12.265625 4.601562 -12.117188 4.1875 -11.828125 C 3.769531 -11.546875 3.5625 -11.144531 3.5625 -10.625 C 3.5625 -10.332031 3.609375 -10.070312 3.703125 -9.84375 C 3.804688 -9.625 3.972656 -9.414062 4.203125 -9.21875 C 4.441406 -9.03125 4.757812 -8.835938 5.15625 -8.640625 C 5.550781 -8.441406 6.046875 -8.21875 6.640625 -7.96875 C 7.253906 -7.71875 7.796875 -7.460938 8.265625 -7.203125 C 8.742188 -6.953125 9.148438 -6.671875 9.484375 -6.359375 C 9.828125 -6.046875 10.085938 -5.6875 10.265625 -5.28125 C 10.441406 -4.875 10.53125 -4.382812 10.53125 -3.8125 Z M 10.53125 -3.8125 "/></g></g></g><g fill="#00ffff" fill-opacity="1"><g transform="translate(159.647304, 369.0745)"><g><path d="M 1.046875 -5.890625 L 1.046875 -8.03125 L 7.328125 -8.03125 L 7.328125 -5.890625 Z M 1.046875 -5.890625 "/></g></g></g><g fill="#00ffff" fill-opacity="1"><g transform="translate(177.613969, 369.0745)"><g><path d="M 13.625 -13.109375 C 13.625 -12.335938 13.507812 -11.597656 13.28125 -10.890625 C 13.050781 -10.179688 12.671875 -9.550781 12.140625 -9 C 11.609375 -8.457031 10.90625 -8.023438 10.03125 -7.703125 C 9.15625 -7.378906 8.070312 -7.21875 6.78125 -7.21875 L 4.875 -7.21875 L 4.875 0 L 2.515625 0 L 2.515625 -18.53125 L 7.109375 -18.53125 C 8.242188 -18.53125 9.21875 -18.410156 10.03125 -18.171875 C 10.851562 -17.929688 11.53125 -17.582031 12.0625 -17.125 C 12.601562 -16.664062 13 -16.097656 13.25 -15.421875 C 13.5 -14.742188 13.625 -13.972656 13.625 -13.109375 Z M 4.875 -9.21875 L 6.515625 -9.21875 C 7.304688 -9.21875 7.992188 -9.285156 8.578125 -9.421875 C 9.160156 -9.554688 9.644531 -9.773438 10.03125 -10.078125 C 10.414062 -10.378906 10.707031 -10.765625 10.90625 -11.234375 C 11.101562 -11.710938 11.203125 -12.296875 11.203125 -12.984375 C 11.203125 -14.179688 10.851562 -15.066406 10.15625 -15.640625 C 9.457031 -16.222656 8.375 -16.515625 6.90625 -16.515625 L 4.875 -16.515625 Z M 4.875 -9.21875 "/></g></g></g><g fill="#00ffff" fill-opacity="1"><g transform="translate(202.186834, 369.0745)"><g><path d="M 0.125 -13.921875 L 2.515625 -13.921875 L 5.25 -6.15625 C 5.363281 -5.8125 5.484375 -5.453125 5.609375 -5.078125 C 5.734375 -4.710938 5.847656 -4.34375 5.953125 -3.96875 C 6.054688 -3.59375 6.144531 -3.234375 6.21875 -2.890625 C 6.300781 -2.546875 6.359375 -2.222656 6.390625 -1.921875 L 6.46875 -1.921875 C 6.507812 -2.140625 6.578125 -2.425781 6.671875 -2.78125 C 6.765625 -3.144531 6.867188 -3.53125 6.984375 -3.9375 C 7.097656 -4.351562 7.210938 -4.757812 7.328125 -5.15625 C 7.453125 -5.550781 7.5625 -5.890625 7.65625 -6.171875 L 10.1875 -13.921875 L 12.5625 -13.921875 L 7.0625 1.8125 C 6.820312 2.5 6.566406 3.113281 6.296875 3.65625 C 6.023438 4.195312 5.707031 4.660156 5.34375 5.046875 C 4.976562 5.429688 4.550781 5.722656 4.0625 5.921875 C 3.570312 6.128906 2.988281 6.234375 2.3125 6.234375 C 1.863281 6.234375 1.476562 6.207031 1.15625 6.15625 C 0.84375 6.113281 0.570312 6.066406 0.34375 6.015625 L 0.34375 4.1875 C 0.519531 4.226562 0.742188 4.265625 1.015625 4.296875 C 1.285156 4.328125 1.566406 4.34375 1.859375 4.34375 C 2.265625 4.34375 2.613281 4.289062 2.90625 4.1875 C 3.207031 4.09375 3.46875 3.953125 3.6875 3.765625 C 3.90625 3.578125 4.09375 3.347656 4.25 3.078125 C 4.40625 2.804688 4.546875 2.5 4.671875 2.15625 L 5.40625 0.125 Z M 0.125 -13.921875 "/></g></g></g><g fill="#00ffff" fill-opacity="1"><g transform="translate(224.490022, 369.0745)"><g><path d="M 7.921875 0 L 5.546875 0 L 5.546875 -16.453125 L 0.25 -16.453125 L 0.25 -18.53125 L 13.21875 -18.53125 L 13.21875 -16.453125 L 7.921875 -16.453125 Z M 7.921875 0 "/></g></g></g><g fill="#00ffff" fill-opacity="1"><g transform="translate(247.579362, 369.0745)"><g><path d="M 13.5625 -6.984375 C 13.5625 -5.828125 13.414062 -4.796875 13.125 -3.890625 C 12.84375 -2.992188 12.4375 -2.238281 11.90625 -1.625 C 11.382812 -1.007812 10.742188 -0.539062 9.984375 -0.21875 C 9.234375 0.09375 8.390625 0.25 7.453125 0.25 C 6.585938 0.25 5.785156 0.09375 5.046875 -0.21875 C 4.304688 -0.539062 3.664062 -1.007812 3.125 -1.625 C 2.59375 -2.238281 2.175781 -2.992188 1.875 -3.890625 C 1.582031 -4.796875 1.4375 -5.828125 1.4375 -6.984375 C 1.4375 -8.140625 1.578125 -9.160156 1.859375 -10.046875 C 2.140625 -10.941406 2.539062 -11.691406 3.0625 -12.296875 C 3.59375 -12.910156 4.234375 -13.375 4.984375 -13.6875 C 5.742188 -14.007812 6.59375 -14.171875 7.53125 -14.171875 C 8.40625 -14.171875 9.207031 -14.007812 9.9375 -13.6875 C 10.675781 -13.375 11.3125 -12.910156 11.84375 -12.296875 C 12.382812 -11.691406 12.804688 -10.941406 13.109375 -10.046875 C 13.410156 -9.160156 13.5625 -8.140625 13.5625 -6.984375 Z M 3.8125 -6.984375 C 3.8125 -5.222656 4.097656 -3.894531 4.671875 -3 C 5.253906 -2.101562 6.195312 -1.65625 7.5 -1.65625 C 8.800781 -1.65625 9.738281 -2.101562 10.3125 -3 C 10.882812 -3.894531 11.171875 -5.222656 11.171875 -6.984375 C 11.171875 -8.753906 10.878906 -10.078125 10.296875 -10.953125 C 9.722656 -11.828125 8.785156 -12.265625 7.484375 -12.265625 C 6.179688 -12.265625 5.242188 -11.828125 4.671875 -10.953125 C 4.097656 -10.078125 3.8125 -8.753906 3.8125 -6.984375 Z M 3.8125 -6.984375 "/></g></g></g><g fill="#00ffff" fill-opacity="1"><g transform="translate(272.177597, 369.0745)"><g><path d="M 13.5625 -6.984375 C 13.5625 -5.828125 13.414062 -4.796875 13.125 -3.890625 C 12.84375 -2.992188 12.4375 -2.238281 11.90625 -1.625 C 11.382812 -1.007812 10.742188 -0.539062 9.984375 -0.21875 C 9.234375 0.09375 8.390625 0.25 7.453125 0.25 C 6.585938 0.25 5.785156 0.09375 5.046875 -0.21875 C 4.304688 -0.539062 3.664062 -1.007812 3.125 -1.625 C 2.59375 -2.238281 2.175781 -2.992188 1.875 -3.890625 C 1.582031 -4.796875 1.4375 -5.828125 1.4375 -6.984375 C 1.4375 -8.140625 1.578125 -9.160156 1.859375 -10.046875 C 2.140625 -10.941406 2.539062 -11.691406 3.0625 -12.296875 C 3.59375 -12.910156 4.234375 -13.375 4.984375 -13.6875 C 5.742188 -14.007812 6.59375 -14.171875 7.53125 -14.171875 C 8.40625 -14.171875 9.207031 -14.007812 9.9375 -13.6875 C 10.675781 -13.375 11.3125 -12.910156 11.84375 -12.296875 C 12.382812 -11.691406 12.804688 -10.941406 13.109375 -10.046875 C 13.410156 -9.160156 13.5625 -8.140625 13.5625 -6.984375 Z M 3.8125 -6.984375 C 3.8125 -5.222656 4.097656 -3.894531 4.671875 -3 C 5.253906 -2.101562 6.195312 -1.65625 7.5 -1.65625 C 8.800781 -1.65625 9.738281 -2.101562 10.3125 -3 C 10.882812 -3.894531 11.171875 -5.222656 11.171875 -6.984375 C 11.171875 -8.753906 10.878906 -10.078125 10.296875 -10.953125 C 9.722656 -11.828125 8.785156 -12.265625 7.484375 -12.265625 C 6.179688 -12.265625 5.242188 -11.828125 4.671875 -10.953125 C 4.097656 -10.078125 3.8125 -8.753906 3.8125 -6.984375 Z M 3.8125 -6.984375 "/></g></g></g><g fill="#00ffff" fill-opacity="1"><g transform="translate(296.775832, 369.0745)"><g><path d="M 4.515625 0 L 2.203125 0 L 2.203125 -19.734375 L 4.515625 -19.734375 Z M 4.515625 0 "/></g></g></g><g fill="#004aad" fill-opacity="1"><g transform="translate(71.010383, 369.0745)"><g><path d="M 4.875 -7.65625 L 4.875 0 L 2.515625 0 L 2.515625 -18.53125 L 7.03125 -18.53125 C 9.28125 -18.53125 10.941406 -18.09375 12.015625 -17.21875 C 13.085938 -16.351562 13.625 -15.039062 13.625 -13.28125 C 13.625 -12.539062 13.519531 -11.894531 13.3125 -11.34375 C 13.113281 -10.800781 12.84375 -10.332031 12.5 -9.9375 C 12.15625 -9.539062 11.757812 -9.210938 11.3125 -8.953125 C 10.875 -8.691406 10.425781 -8.476562 9.96875 -8.3125 L 15.015625 0 L 12.234375 0 L 7.78125 -7.65625 Z M 4.875 -9.65625 L 6.96875 -9.65625 C 7.726562 -9.65625 8.375 -9.726562 8.90625 -9.875 C 9.4375 -10.03125 9.875 -10.253906 10.21875 -10.546875 C 10.5625 -10.835938 10.8125 -11.195312 10.96875 -11.625 C 11.125 -12.0625 11.203125 -12.570312 11.203125 -13.15625 C 11.203125 -13.769531 11.113281 -14.285156 10.9375 -14.703125 C 10.757812 -15.128906 10.492188 -15.476562 10.140625 -15.75 C 9.796875 -16.019531 9.351562 -16.210938 8.8125 -16.328125 C 8.28125 -16.453125 7.644531 -16.515625 6.90625 -16.515625 L 4.875 -16.515625 Z M 4.875 -9.65625 "/></g></g></g><g fill="#004aad" fill-opacity="1"><g transform="translate(95.93829, 369.0745)"><g><path d="M 10.90625 0 L 10.90625 -8.96875 C 10.90625 -10.0625 10.679688 -10.882812 10.234375 -11.4375 C 9.796875 -11.988281 9.101562 -12.265625 8.15625 -12.265625 C 7.46875 -12.265625 6.890625 -12.15625 6.421875 -11.9375 C 5.960938 -11.71875 5.585938 -11.390625 5.296875 -10.953125 C 5.015625 -10.523438 4.8125 -10 4.6875 -9.375 C 4.570312 -8.75 4.515625 -8.03125 4.515625 -7.21875 L 4.515625 0 L 2.203125 0 L 2.203125 -19.734375 L 4.515625 -19.734375 L 4.515625 -13.875 L 4.40625 -12.046875 L 4.546875 -12.046875 C 4.753906 -12.410156 5.003906 -12.722656 5.296875 -12.984375 C 5.585938 -13.253906 5.90625 -13.476562 6.25 -13.65625 C 6.59375 -13.832031 6.957031 -13.960938 7.34375 -14.046875 C 7.738281 -14.128906 8.140625 -14.171875 8.546875 -14.171875 C 10.085938 -14.171875 11.25 -13.765625 12.03125 -12.953125 C 12.820312 -12.148438 13.21875 -10.863281 13.21875 -9.09375 L 13.21875 0 Z M 10.90625 0 "/></g></g></g><g fill="#004aad" fill-opacity="1"><g transform="translate(120.840836, 369.0745)"><g><path d="M 1.046875 -5.890625 L 1.046875 -8.03125 L 7.328125 -8.03125 L 7.328125 -5.890625 Z M 1.046875 -5.890625 "/></g></g></g><g fill="#004aad" fill-opacity="1"><g transform="translate(138.807505, 369.0745)"><g><path d="M 10.53125 -3.8125 C 10.53125 -3.132812 10.40625 -2.539062 10.15625 -2.03125 C 9.914062 -1.53125 9.566406 -1.109375 9.109375 -0.765625 C 8.648438 -0.421875 8.09375 -0.164062 7.4375 0 C 6.789062 0.164062 6.0625 0.25 5.25 0.25 C 4.332031 0.25 3.539062 0.175781 2.875 0.03125 C 2.21875 -0.113281 1.640625 -0.332031 1.140625 -0.625 L 1.140625 -2.71875 C 1.398438 -2.582031 1.691406 -2.445312 2.015625 -2.3125 C 2.335938 -2.1875 2.675781 -2.070312 3.03125 -1.96875 C 3.382812 -1.875 3.75 -1.796875 4.125 -1.734375 C 4.5 -1.671875 4.875 -1.640625 5.25 -1.640625 C 5.800781 -1.640625 6.269531 -1.6875 6.65625 -1.78125 C 7.039062 -1.875 7.351562 -2.003906 7.59375 -2.171875 C 7.832031 -2.347656 8.003906 -2.5625 8.109375 -2.8125 C 8.222656 -3.0625 8.28125 -3.335938 8.28125 -3.640625 C 8.28125 -3.898438 8.238281 -4.132812 8.15625 -4.34375 C 8.070312 -4.5625 7.914062 -4.769531 7.6875 -4.96875 C 7.46875 -5.175781 7.160156 -5.382812 6.765625 -5.59375 C 6.378906 -5.8125 5.882812 -6.050781 5.28125 -6.3125 C 4.664062 -6.570312 4.113281 -6.828125 3.625 -7.078125 C 3.144531 -7.335938 2.734375 -7.625 2.390625 -7.9375 C 2.054688 -8.25 1.796875 -8.609375 1.609375 -9.015625 C 1.429688 -9.429688 1.34375 -9.921875 1.34375 -10.484375 C 1.34375 -11.078125 1.457031 -11.601562 1.6875 -12.0625 C 1.925781 -12.519531 2.253906 -12.90625 2.671875 -13.21875 C 3.097656 -13.53125 3.601562 -13.765625 4.1875 -13.921875 C 4.78125 -14.085938 5.441406 -14.171875 6.171875 -14.171875 C 6.992188 -14.171875 7.742188 -14.082031 8.421875 -13.90625 C 9.109375 -13.726562 9.753906 -13.5 10.359375 -13.21875 L 9.5625 -11.34375 C 9.007812 -11.59375 8.441406 -11.804688 7.859375 -11.984375 C 7.285156 -12.171875 6.695312 -12.265625 6.09375 -12.265625 C 5.238281 -12.265625 4.601562 -12.117188 4.1875 -11.828125 C 3.769531 -11.546875 3.5625 -11.144531 3.5625 -10.625 C 3.5625 -10.332031 3.609375 -10.070312 3.703125 -9.84375 C 3.804688 -9.625 3.972656 -9.414062 4.203125 -9.21875 C 4.441406 -9.03125 4.757812 -8.835938 5.15625 -8.640625 C 5.550781 -8.441406 6.046875 -8.21875 6.640625 -7.96875 C 7.253906 -7.71875 7.796875 -7.460938 8.265625 -7.203125 C 8.742188 -6.953125 9.148438 -6.671875 9.484375 -6.359375 C 9.828125 -6.046875 10.085938 -5.6875 10.265625 -5.28125 C 10.441406 -4.875 10.53125 -4.382812 10.53125 -3.8125 Z M 10.53125 -3.8125 "/></g></g></g><g fill="#004aad" fill-opacity="1"><g transform="translate(160.13433, 369.0745)"><g><path d="M 1.046875 -5.890625 L 1.046875 -8.03125 L 7.328125 -8.03125 L 7.328125 -5.890625 Z M 1.046875 -5.890625 "/></g></g></g><g fill="#004aad" fill-opacity="1"><g transform="translate(178.100994, 369.0745)"><g><path d="M 13.625 -13.109375 C 13.625 -12.335938 13.507812 -11.597656 13.28125 -10.890625 C 13.050781 -10.179688 12.671875 -9.550781 12.140625 -9 C 11.609375 -8.457031 10.90625 -8.023438 10.03125 -7.703125 C 9.15625 -7.378906 8.070312 -7.21875 6.78125 -7.21875 L 4.875 -7.21875 L 4.875 0 L 2.515625 0 L 2.515625 -18.53125 L 7.109375 -18.53125 C 8.242188 -18.53125 9.21875 -18.410156 10.03125 -18.171875 C 10.851562 -17.929688 11.53125 -17.582031 12.0625 -17.125 C 12.601562 -16.664062 13 -16.097656 13.25 -15.421875 C 13.5 -14.742188 13.625 -13.972656 13.625 -13.109375 Z M 4.875 -9.21875 L 6.515625 -9.21875 C 7.304688 -9.21875 7.992188 -9.285156 8.578125 -9.421875 C 9.160156 -9.554688 9.644531 -9.773438 10.03125 -10.078125 C 10.414062 -10.378906 10.707031 -10.765625 10.90625 -11.234375 C 11.101562 -11.710938 11.203125 -12.296875 11.203125 -12.984375 C 11.203125 -14.179688 10.851562 -15.066406 10.15625 -15.640625 C 9.457031 -16.222656 8.375 -16.515625 6.90625 -16.515625 L 4.875 -16.515625 Z M 4.875 -9.21875 "/></g></g></g><g fill="#004aad" fill-opacity="1"><g transform="translate(202.67386, 369.0745)"><g><path d="M 0.125 -13.921875 L 2.515625 -13.921875 L 5.25 -6.15625 C 5.363281 -5.8125 5.484375 -5.453125 5.609375 -5.078125 C 5.734375 -4.710938 5.847656 -4.34375 5.953125 -3.96875 C 6.054688 -3.59375 6.144531 -3.234375 6.21875 -2.890625 C 6.300781 -2.546875 6.359375 -2.222656 6.390625 -1.921875 L 6.46875 -1.921875 C 6.507812 -2.140625 6.578125 -2.425781 6.671875 -2.78125 C 6.765625 -3.144531 6.867188 -3.53125 6.984375 -3.9375 C 7.097656 -4.351562 7.210938 -4.757812 7.328125 -5.15625 C 7.453125 -5.550781 7.5625 -5.890625 7.65625 -6.171875 L 10.1875 -13.921875 L 12.5625 -13.921875 L 7.0625 1.8125 C 6.820312 2.5 6.566406 3.113281 6.296875 3.65625 C 6.023438 4.195312 5.707031 4.660156 5.34375 5.046875 C 4.976562 5.429688 4.550781 5.722656 4.0625 5.921875 C 3.570312 6.128906 2.988281 6.234375 2.3125 6.234375 C 1.863281 6.234375 1.476562 6.207031 1.15625 6.15625 C 0.84375 6.113281 0.570312 6.066406 0.34375 6.015625 L 0.34375 4.1875 C 0.519531 4.226562 0.742188 4.265625 1.015625 4.296875 C 1.285156 4.328125 1.566406 4.34375 1.859375 4.34375 C 2.265625 4.34375 2.613281 4.289062 2.90625 4.1875 C 3.207031 4.09375 3.46875 3.953125 3.6875 3.765625 C 3.90625 3.578125 4.09375 3.347656 4.25 3.078125 C 4.40625 2.804688 4.546875 2.5 4.671875 2.15625 L 5.40625 0.125 Z M 0.125 -13.921875 "/></g></g></g><g fill="#004aad" fill-opacity="1"><g transform="translate(224.977047, 369.0745)"><g><path d="M 7.921875 0 L 5.546875 0 L 5.546875 -16.453125 L 0.25 -16.453125 L 0.25 -18.53125 L 13.21875 -18.53125 L 13.21875 -16.453125 L 7.921875 -16.453125 Z M 7.921875 0 "/></g></g></g><g fill="#004aad" fill-opacity="1"><g transform="translate(248.066387, 369.0745)"><g><path d="M 13.5625 -6.984375 C 13.5625 -5.828125 13.414062 -4.796875 13.125 -3.890625 C 12.84375 -2.992188 12.4375 -2.238281 11.90625 -1.625 C 11.382812 -1.007812 10.742188 -0.539062 9.984375 -0.21875 C 9.234375 0.09375 8.390625 0.25 7.453125 0.25 C 6.585938 0.25 5.785156 0.09375 5.046875 -0.21875 C 4.304688 -0.539062 3.664062 -1.007812 3.125 -1.625 C 2.59375 -2.238281 2.175781 -2.992188 1.875 -3.890625 C 1.582031 -4.796875 1.4375 -5.828125 1.4375 -6.984375 C 1.4375 -8.140625 1.578125 -9.160156 1.859375 -10.046875 C 2.140625 -10.941406 2.539062 -11.691406 3.0625 -12.296875 C 3.59375 -12.910156 4.234375 -13.375 4.984375 -13.6875 C 5.742188 -14.007812 6.59375 -14.171875 7.53125 -14.171875 C 8.40625 -14.171875 9.207031 -14.007812 9.9375 -13.6875 C 10.675781 -13.375 11.3125 -12.910156 11.84375 -12.296875 C 12.382812 -11.691406 12.804688 -10.941406 13.109375 -10.046875 C 13.410156 -9.160156 13.5625 -8.140625 13.5625 -6.984375 Z M 3.8125 -6.984375 C 3.8125 -5.222656 4.097656 -3.894531 4.671875 -3 C 5.253906 -2.101562 6.195312 -1.65625 7.5 -1.65625 C 8.800781 -1.65625 9.738281 -2.101562 10.3125 -3 C 10.882812 -3.894531 11.171875 -5.222656 11.171875 -6.984375 C 11.171875 -8.753906 10.878906 -10.078125 10.296875 -10.953125 C 9.722656 -11.828125 8.785156 -12.265625 7.484375 -12.265625 C 6.179688 -12.265625 5.242188 -11.828125 4.671875 -10.953125 C 4.097656 -10.078125 3.8125 -8.753906 3.8125 -6.984375 Z M 3.8125 -6.984375 "/></g></g></g><g fill="#004aad" fill-opacity="1"><g transform="translate(272.664622, 369.0745)"><g><path d="M 13.5625 -6.984375 C 13.5625 -5.828125 13.414062 -4.796875 13.125 -3.890625 C 12.84375 -2.992188 12.4375 -2.238281 11.90625 -1.625 C 11.382812 -1.007812 10.742188 -0.539062 9.984375 -0.21875 C 9.234375 0.09375 8.390625 0.25 7.453125 0.25 C 6.585938 0.25 5.785156 0.09375 5.046875 -0.21875 C 4.304688 -0.539062 3.664062 -1.007812 3.125 -1.625 C 2.59375 -2.238281 2.175781 -2.992188 1.875 -3.890625 C 1.582031 -4.796875 1.4375 -5.828125 1.4375 -6.984375 C 1.4375 -8.140625 1.578125 -9.160156 1.859375 -10.046875 C 2.140625 -10.941406 2.539062 -11.691406 3.0625 -12.296875 C 3.59375 -12.910156 4.234375 -13.375 4.984375 -13.6875 C 5.742188 -14.007812 6.59375 -14.171875 7.53125 -14.171875 C 8.40625 -14.171875 9.207031 -14.007812 9.9375 -13.6875 C 10.675781 -13.375 11.3125 -12.910156 11.84375 -12.296875 C 12.382812 -11.691406 12.804688 -10.941406 13.109375 -10.046875 C 13.410156 -9.160156 13.5625 -8.140625 13.5625 -6.984375 Z M 3.8125 -6.984375 C 3.8125 -5.222656 4.097656 -3.894531 4.671875 -3 C 5.253906 -2.101562 6.195312 -1.65625 7.5 -1.65625 C 8.800781 -1.65625 9.738281 -2.101562 10.3125 -3 C 10.882812 -3.894531 11.171875 -5.222656 11.171875 -6.984375 C 11.171875 -8.753906 10.878906 -10.078125 10.296875 -10.953125 C 9.722656 -11.828125 8.785156 -12.265625 7.484375 -12.265625 C 6.179688 -12.265625 5.242188 -11.828125 4.671875 -10.953125 C 4.097656 -10.078125 3.8125 -8.753906 3.8125 -6.984375 Z M 3.8125 -6.984375 "/></g></g></g><g fill="#004aad" fill-opacity="1"><g transform="translate(297.262857, 369.0745)"><g><path d="M 4.515625 0 L 2.203125 0 L 2.203125 -19.734375 L 4.515625 -19.734375 Z M 4.515625 0 "/></g></g></g></svg>